<?xml version="1.0" encoding="utf-8"?>
<!-- Generator: Adobe Illustrator 26.5.0, SVG Export Plug-In . SVG Version: 6.00 Build 0)  -->
<svg version="1.1" id="Default" xmlns="http://www.w3.org/2000/svg" xmlns:xlink="http://www.w3.org/1999/xlink" x="0px" y="0px"
	 viewBox="0 0 612 792" style="enable-background:new 0 0 612 792;" xml:space="preserve">
<style type="text/css">
	.st0{fill:none;stroke:#000000;stroke-linecap:round;stroke-linejoin:round;}
</style>
<polygon class="st0" points="300.89,161.26 383.58,161.26 383.58,243.95 379.1,248.43 337.51,248.43 337.51,254.1 379.1,254.1 
	383.58,258.57 383.58,341.26 300.89,341.26 297.4,337.78 297.4,295.2 289.75,295.2 289.75,337.78 286.27,341.26 203.58,341.26 
	203.58,258.57 208.05,254.1 249.64,254.1 249.64,248.43 208.05,248.43 203.58,243.95 203.58,161.26 286.27,161.26 289.75,164.75 
	289.75,207.33 297.4,207.33 297.4,164.75 "/>
<line class="st0" x1="293.58" y1="169.37" x2="293.58" y2="169.37"/>
<line class="st0" x1="293.58" y1="172.85" x2="293.58" y2="172.85"/>
<line class="st0" x1="293.58" y1="215.43" x2="293.58" y2="215.43"/>
<line class="st0" x1="293.58" y1="215.43" x2="293.58" y2="215.43"/>
<line class="st0" x1="293.58" y1="172.85" x2="293.58" y2="172.85"/>
<line class="st0" x1="293.58" y1="169.37" x2="293.58" y2="169.37"/>
<line class="st0" x1="-98.51" y1="690" x2="-98.51" y2="690"/>
<line class="st0" x1="-98.51" y1="772.69" x2="-98.51" y2="772.69"/>
<line class="st0" x1="-94.04" y1="777.17" x2="-94.04" y2="777.17"/>
<line class="st0" x1="-52.45" y1="777.17" x2="-52.45" y2="777.17"/>
<line class="st0" x1="-52.45" y1="782.83" x2="-52.45" y2="782.83"/>
<line class="st0" x1="-94.04" y1="782.83" x2="-94.04" y2="782.83"/>
<line class="st0" x1="-98.51" y1="787.31" x2="-98.51" y2="787.31"/>
<line class="st0" x1="-98.51" y1="870" x2="-98.51" y2="870"/>
<line class="st0" x1="-15.82" y1="870" x2="-15.82" y2="870"/>
<line class="st0" x1="-12.34" y1="866.52" x2="-12.34" y2="866.52"/>
<line class="st0" x1="-12.34" y1="823.94" x2="-12.34" y2="823.94"/>
<line class="st0" x1="-4.69" y1="823.94" x2="-4.69" y2="823.94"/>
<line class="st0" x1="-4.69" y1="866.52" x2="-4.69" y2="866.52"/>
<line class="st0" x1="-1.2" y1="870" x2="-1.2" y2="870"/>
<line class="st0" x1="81.49" y1="870" x2="81.49" y2="870"/>
<line class="st0" x1="81.49" y1="787.31" x2="81.49" y2="787.31"/>
<line class="st0" x1="77.01" y1="782.83" x2="77.01" y2="782.83"/>
<line class="st0" x1="35.42" y1="782.83" x2="35.42" y2="782.83"/>
<line class="st0" x1="35.42" y1="777.17" x2="35.42" y2="777.17"/>
<line class="st0" x1="77.01" y1="777.17" x2="77.01" y2="777.17"/>
<line class="st0" x1="81.49" y1="772.69" x2="81.49" y2="772.69"/>
<line class="st0" x1="293.58" y1="169.37" x2="293.58" y2="169.37"/>
<polygon class="st0" points="203.58,511.53 203.58,534.23 262.44,534.23 262.44,593.09 285.14,593.09 288.61,589.62 288.61,537.12 
	298.54,537.12 298.54,589.62 302.01,593.09 324.72,593.09 324.72,534.23 383.58,534.23 383.58,511.53 380.11,508.05 327.61,508.05 
	327.61,498.12 380.11,498.12 383.58,494.65 383.58,471.95 324.72,471.95 324.72,413.09 302.01,413.09 298.54,416.56 298.54,469.06 
	288.61,469.06 288.61,416.56 285.14,413.09 262.44,413.09 262.44,471.95 203.58,471.95 203.58,494.65 207.05,498.12 259.55,498.12 
	259.55,508.05 207.05,508.05 "/>
</svg>
